<svg xmlns="http://www.w3.org/2000/svg" width="72" height="72" viewBox="0 0 72 72" fill="none"><rect width="72" height="72" rx="16" fill="#547F7E"></rect><path d="M35.304 17.0186C38.2686 16.8787 41.2527 17.5318 43.9205 18.822C45.6594 19.6516 47.2659 20.7433 48.73 21.9919C52.8414 25.6444 55.1894 31.1733 54.9875 36.6674C54.772 36.5919 54.5515 36.5028 54.3191 36.5232C49.8505 36.9312 45.5542 38.9568 42.3885 42.136C39.2899 45.1591 37.21 49.2019 36.5543 53.4804C36.4398 53.9817 36.4517 54.5136 36.662 54.9894C32.2936 55.1379 27.8946 53.7188 24.4397 51.04C23.5974 50.3911 22.8094 49.6709 22.0875 48.8897C20.7778 47.3747 19.6429 45.7003 18.7861 43.8876C17.6156 41.4336 16.9777 38.7193 17.0006 35.9972C17.0142 32.3362 18.217 28.7185 20.2663 25.6962C22.0426 23.0683 24.4414 20.8612 27.2211 19.3309C29.6937 17.961 32.4768 17.1416 35.304 17.0186ZM33.9154 20.622C33.3598 20.6059 32.9993 21.3209 33.3768 21.7408C33.6406 22.0869 34.0978 21.963 34.4642 21.9206C34.784 21.8655 35.1657 21.9334 35.4194 21.6857C35.7604 21.3845 35.6696 20.7255 35.2209 20.5804C34.7934 20.4532 34.3463 20.5736 33.9154 20.622ZM30.3553 21.5474C28.4392 22.2939 26.6774 23.4297 25.204 24.864C25.0258 25.0286 24.8299 25.2212 24.8333 25.4841C24.8078 25.8743 25.1768 26.2246 25.5645 26.1805C25.8571 26.1627 26.0505 25.9193 26.249 25.7352C27.5587 24.484 29.1152 23.4941 30.799 22.8274C31.1323 22.7188 31.3665 22.3566 31.2698 22.0072C31.1858 21.6178 30.7201 21.3803 30.3553 21.5474ZM46.8308 26.8947C45.2581 27.6989 43.5057 28.0161 41.8168 28.4784C40.5741 28.7812 39.4299 29.4793 38.5986 30.4523C37.512 31.7085 36.9623 33.4186 37.1354 35.0727C37.1354 35.1999 37.1947 35.3517 37.093 35.4586C36.3236 36.5189 35.7705 37.7412 35.5254 39.0306C35.3345 38.704 35.1327 38.3842 34.9062 38.0805C35.1293 36.4044 34.6967 34.6265 33.5982 33.3227C32.5515 32.0436 31.0051 31.2318 29.3926 30.9341C27.792 30.6618 26.2482 30.1104 24.8027 29.3775C24.3871 29.157 23.8324 29.5065 23.8476 29.9756C23.8629 31.1936 23.7424 32.4363 24.0571 33.6281C24.4533 35.2126 25.4313 36.6394 26.7579 37.5911C27.9073 38.4241 29.3162 38.8898 30.7362 38.9084C31.7728 38.9152 32.8093 38.9093 33.8467 38.911C34.6568 40.0239 35.1903 41.342 35.3473 42.7111C35.3761 43.4168 35.3413 44.1234 35.3617 44.83C35.3634 45.1413 35.6145 45.4229 35.9215 45.4687C36.3126 45.5476 36.7163 45.2134 36.707 44.8139C36.7486 42.9664 36.5874 41.1037 36.869 39.2681C37.0336 38.1467 37.5714 37.1144 38.2245 36.2017C39.2348 36.2025 40.2442 36.2034 41.2544 36.2017C42.6591 36.1974 44.0579 35.758 45.2098 34.9548C46.6128 33.9869 47.6409 32.4889 48.0319 30.8289C48.3169 29.6897 48.2024 28.5072 48.2236 27.346C48.2465 27.0186 48.0209 26.6929 47.696 26.625C47.3754 26.5402 47.1005 26.7633 46.8308 26.8947Z" fill="white"></path><path d="M42.0378 29.8288C43.68 29.4548 45.2934 28.9611 46.8728 28.3775C47.0246 29.6354 46.7608 30.9417 46.1094 32.0309C45.3494 33.3236 44.0617 34.2915 42.6095 34.663C41.5899 34.9404 40.5246 34.8284 39.4821 34.8505C40.4287 33.9691 41.5161 33.2473 42.6672 32.662C43.1278 32.4474 43.6724 32.3702 44.0507 32.0071C44.3561 31.7018 44.2314 31.1241 43.8352 30.9604C43.5426 30.8094 43.2304 30.9672 42.9548 31.0766C41.3117 31.7323 39.7976 32.7019 38.5049 33.9089C38.7136 32.0004 40.1683 30.292 42.0378 29.8288Z" fill="white"></path><path d="M25.1971 31.0875C26.6171 31.7169 28.1558 31.9824 29.636 32.4235C30.6386 32.7255 31.6489 33.1581 32.3707 33.9444C33.0536 34.6697 33.4056 35.6409 33.5608 36.6113C32.1553 35.3126 30.5012 34.2701 28.6944 33.6314C28.1634 33.4524 27.635 34.0937 27.9183 34.5797C28.2364 35.0615 28.87 35.1167 29.3544 35.3491C30.5266 35.9318 31.6285 36.6656 32.5879 37.5588C31.9161 37.5545 31.2443 37.5715 30.5733 37.5478C29.1033 37.4867 27.6757 36.8106 26.6849 35.7249C25.8774 34.8503 25.3583 33.7128 25.2319 32.5287C25.1802 32.0503 25.2014 31.5676 25.1971 31.0875Z" fill="white"></path><path opacity="0.4" d="M42.7595 43.6976C45.7309 40.5668 49.7558 38.3766 54.0624 37.8566C54.3092 37.8397 54.5789 37.933 54.713 38.1527C54.9004 38.4309 54.8249 38.8287 54.5823 39.051C49.3911 44.2371 44.2032 49.4275 39.0086 54.6111C38.7091 54.942 38.1535 54.858 37.9194 54.4932C38.1001 50.4463 39.9849 46.602 42.7595 43.6976Z" fill="white"></path></svg>