<svg xmlns="http://www.w3.org/2000/svg" width="72" height="72" viewBox="0 0 72 72" fill="none"><rect width="72" height="72" rx="16" fill="#547F7E"></rect><path d="M25.4641 19.0082C25.3543 17.9206 26.3933 16.9713 27.4492 17.003C32.9094 16.9977 38.3695 17.0009 43.8297 17.0019C44.4347 16.9882 45.044 17.2469 45.4304 17.7157C45.9056 18.2722 46.0397 19.1 45.7409 19.7705C44.9743 21.4779 44.6005 23.3585 44.648 25.2296C44.704 27.8937 45.6427 30.5208 47.2614 32.6358C45.497 33.263 43.7484 33.96 41.9216 34.3929C37.1605 35.5618 32.0731 35.3559 27.4196 33.8153C26.2993 33.4436 25.1948 33.0276 24.084 32.6284C26.3489 29.6349 27.2993 25.5992 26.2961 21.9478C26.0628 20.9553 25.5507 20.0335 25.4641 19.0082ZM35.8374 31.5092C35.3971 31.5979 35.0888 32.0762 35.1996 32.5144C35.2852 32.9558 35.7762 33.2789 36.2144 33.1448C36.622 33.0413 36.9018 32.5999 36.8194 32.186C36.7529 31.7415 36.2798 31.4025 35.8374 31.5092Z" fill="white"></path><path d="M53.4258 20.7841C53.7637 20.5085 54.3075 20.5708 54.5788 20.9108C54.8914 21.2614 54.8196 21.8538 54.4416 22.1294C53.5197 22.878 52.5884 23.6171 51.6624 24.3626C54.0477 24.3668 56.432 24.3573 58.8162 24.3732C59.3146 24.3563 59.7349 24.861 59.6388 25.3489C59.5786 25.7828 59.1478 26.0964 58.717 26.0595C56.3697 26.0584 54.0213 26.0479 51.674 26.0542C52.5853 26.7933 53.5029 27.524 54.4162 28.26C54.6538 28.4385 54.809 28.7341 54.7731 29.0361C54.7436 29.4849 54.3032 29.8523 53.8555 29.7964C53.5451 29.7795 53.3223 29.544 53.0932 29.3645C52.3128 28.7362 51.5293 28.1111 50.7501 27.4808C50.3699 27.1682 49.9412 26.8894 49.6825 26.4586C49.2105 25.7279 49.2 24.7332 49.6572 23.993C49.8452 23.6647 50.1345 23.4134 50.4301 23.1853C51.4322 22.3891 52.4227 21.5782 53.4258 20.7841Z" fill="white"></path><path d="M17.6893 20.7388C18.0145 20.5603 18.4252 20.6469 18.6892 20.894C19.7293 21.7314 20.7736 22.5634 21.8116 23.4029C22.3311 23.8168 22.6616 24.4567 22.6901 25.1208C22.7345 25.8684 22.3913 26.6203 21.8042 27.0838C20.7514 27.9306 19.6976 28.7775 18.6417 29.6222C18.3249 29.9073 17.798 29.9063 17.495 29.6001C17.1486 29.2864 17.1508 28.6814 17.5066 28.3762C18.4464 27.6075 19.3988 26.8536 20.3428 26.0891C17.9617 26.0881 15.5795 26.087 13.1995 26.0912C12.7402 26.105 12.3273 25.6932 12.3474 25.2328C12.3432 24.7882 12.7423 24.3944 13.1879 24.4039C15.5753 24.3912 17.9649 24.4039 20.3534 24.3975C19.403 23.6288 18.4432 22.8696 17.4971 22.0946C17.0768 21.7292 17.1898 20.9774 17.6893 20.7388Z" fill="white"></path><path opacity="0.4" d="M21.9541 38.3314C22.2339 36.8869 22.688 35.4773 23.3057 34.1426C25.6382 34.982 27.9602 35.9007 30.4152 36.3209C35.6293 37.3293 41.1232 36.8098 46.066 34.8701C46.7186 34.6146 47.3838 34.3971 48.0385 34.15C48.6583 35.4868 49.1113 36.8996 49.3816 38.3483C46.3289 39.9406 43.2594 41.5023 40.1634 43.0102C38.8551 43.6205 37.568 44.2868 36.2101 44.7841C35.6758 45.008 35.0665 44.8528 34.5575 44.631C30.356 42.5318 26.1567 40.4285 21.9541 38.3314Z" fill="white"></path><path d="M21.7102 40.1075C25.4249 41.9818 29.127 43.8814 32.8829 45.6701C33.5323 45.9499 34.1563 46.2921 34.8321 46.5064C34.8331 49.3373 34.8331 52.1682 34.8321 54.9992C32.3338 54.9981 29.8355 55.0023 27.3372 54.997C26.6075 55.0129 25.8874 54.5979 25.5537 53.9464C24.8801 52.6149 24.2191 51.2781 23.5528 49.9424C22.0449 46.9182 21.3987 43.4728 21.7102 40.1075Z" fill="white"></path><path d="M42.7412 43.588C45.0431 42.4349 47.3429 41.2787 49.6374 40.1108C49.932 43.3567 49.347 46.6786 47.9542 49.6268C47.252 51.0649 46.5266 52.4915 45.8086 53.9212C45.4823 54.5769 44.7706 55.0046 44.0399 54.9961C41.5342 55.0035 39.0296 54.9982 36.5239 54.9982C36.5176 52.1726 36.5313 49.3459 36.5176 46.5203C38.6463 45.665 40.6779 44.5869 42.7412 43.588Z" fill="white"></path></svg>