<svg xmlns="http://www.w3.org/2000/svg" width="72" height="72" viewBox="0 0 72 72" fill="none"><rect width="72" height="72" rx="16" fill="#547F7E"></rect><path d="M32.8115 18C34.452 18.7238 36.0461 19.5814 37.4556 20.6971C38.7769 21.7311 39.8808 23.0033 41.0884 24.1609C42.2169 25.2403 43.4828 26.1733 44.8386 26.9489C45.6106 27.3891 46.409 27.821 47.2875 28.0038C48.3405 28.2147 49.4199 28.1093 50.4857 28.1511C51.6887 28.2284 52.7509 29.2105 52.9291 30.4017C53 30.9046 52.9546 31.4148 52.9709 31.9213C41.6577 31.9349 30.3444 31.9231 19.0312 31.9276C19.0494 31.2183 18.943 30.4745 19.2385 29.8052C19.6396 28.8131 20.6735 28.122 21.7456 28.1402C23.8071 28.1375 25.8959 28.1429 27.911 27.6528C29.1696 27.3509 30.4099 26.8271 31.3647 25.9323C32.2059 25.1493 32.7897 24.0908 32.9788 22.9551C33.2498 21.31 33.0107 19.6387 32.8115 18Z" fill="white"></path><path opacity="0.4" d="M16.7387 33.2143C16.7287 33.0133 16.9724 33.0142 17.1124 33.016C29.4769 33.0215 41.8422 33.016 54.2076 33.0188C54.5113 33.0233 54.8178 32.9988 55.1215 33.0324C55.2888 33.0742 55.257 33.2743 55.267 33.4025C55.2634 34.3619 55.2652 35.3203 55.2652 36.2797C42.4197 36.277 29.5733 36.2852 16.7278 36.2761C16.7396 35.2549 16.7141 34.2337 16.7387 33.2143Z" fill="white"></path><path d="M15.8655 37.4483C16.2065 37.3319 16.573 37.3792 16.9267 37.371C29.8368 37.3719 42.7478 37.3692 55.6587 37.3719C56.0488 37.3583 56.4499 37.5393 56.6545 37.8812C56.8336 38.144 56.8263 38.4732 56.8254 38.7769C56.8191 42.5034 56.8272 46.2299 56.8218 49.9555C56.8263 51.044 56.3689 52.1244 55.5787 52.8746C54.8303 53.6002 53.7927 54.0113 52.7506 53.9994C41.5692 53.9994 30.3878 54.0013 19.2065 53.9985C17.8815 54.0076 16.5839 53.3074 15.8555 52.2026C15.3926 51.5187 15.1608 50.6894 15.1744 49.8655C15.1753 46.079 15.1726 42.2924 15.1753 38.5059C15.1544 38.0521 15.4399 37.6084 15.8655 37.4483ZM27.0287 41.7841C26.4376 41.9414 25.993 42.5243 26.0166 43.139C26.0148 44.835 26.0157 46.53 26.0166 48.2251C25.982 48.9707 26.6404 49.6546 27.3879 49.6391C33.1159 49.6436 38.8448 49.6391 44.5728 49.6418C45.4085 49.68 46.0923 48.868 45.9832 48.0523C45.975 46.3845 45.9896 44.7168 45.9769 43.0499C45.965 42.3261 45.2967 41.705 44.5756 41.735C39.0594 41.7368 33.5433 41.7359 28.0281 41.7359C27.6953 41.7423 27.3552 41.7041 27.0287 41.7841Z" fill="white"></path><path opacity="0.4" d="M27.2249 42.8835C27.3504 42.7971 27.5141 42.839 27.6559 42.8244C33.0829 42.8308 38.5099 42.8253 43.936 42.8271C44.2052 42.8362 44.4826 42.7917 44.7454 42.8644C44.9081 42.9517 44.8827 43.1563 44.8918 43.3127C44.8827 44.9496 44.8963 46.5864 44.8854 48.2223C44.9181 48.456 44.6826 48.5806 44.4807 48.5506C38.8118 48.5479 33.1429 48.5515 27.474 48.5488C27.2885 48.5752 27.0876 48.4424 27.1103 48.2387C27.0967 46.6 27.1112 44.9596 27.103 43.32C27.1158 43.1727 27.0785 42.9763 27.2249 42.8835Z" fill="white"></path></svg>