<svg xmlns="http://www.w3.org/2000/svg" width="72" height="72" viewBox="0 0 72 72" fill="none"><rect width="72" height="72" rx="16" fill="#547F7E"></rect><g clip-path="url(#clip0_258_4432)"><path d="M39.5864 17.1032C39.9323 16.9087 40.4139 17.0282 40.6195 17.3704C40.7746 17.6057 40.7694 17.9122 40.6559 18.1638C39.5604 20.6739 38.7603 23.3079 38.2067 25.9894C37.8452 27.7974 37.5884 29.6291 37.4971 31.4719C37.4148 32.4108 37.4556 33.3534 37.443 34.2945C37.5283 37.4666 38.0976 40.638 39.2368 43.6037C39.2784 43.6809 39.3467 43.7396 39.406 43.8041C40.3568 44.7697 40.86 46.1606 40.7257 47.5114C40.6321 48.6202 40.1237 49.683 39.3303 50.4608C38.4909 51.2943 37.3294 51.7975 36.1456 51.8257C35.1793 51.8598 34.207 51.5837 33.4003 51.0516C32.3931 50.3933 31.6487 49.3401 31.3793 48.166C31.2502 47.6338 31.2412 47.0839 31.2576 46.5398C31.2791 43.5303 31.5203 40.5222 31.976 37.5475C32.1467 36.5982 32.3063 35.6467 32.4859 34.699C32.7501 33.5738 32.9691 32.4375 33.2897 31.3257C34.0823 28.3169 35.1288 25.3734 36.4314 22.5471C37.1802 20.9002 38.0471 19.3075 39.0157 17.7793C39.1849 17.5396 39.32 17.2524 39.5864 17.1032Z" fill="white"></path><path opacity="0.4" d="M17 46.2726C17.023 45.8214 17.4357 45.4629 17.8854 45.5015C21.5489 45.4993 25.213 45.4985 28.8772 45.5022C29.2016 45.4859 29.5333 45.6626 29.6625 45.9676C29.8235 46.3142 29.6706 46.6964 29.6736 47.0571C29.6587 48.491 30.1605 49.9235 31.063 51.0367C31.8675 52.0439 32.9852 52.7987 34.2247 53.1572C35.5502 53.5468 37.0027 53.4852 38.2896 52.982C39.5595 52.4929 40.6543 51.5756 41.3742 50.423C41.9998 49.4232 42.3368 48.2424 42.3264 47.0623C42.3257 46.6682 42.152 46.2289 42.3887 45.8696C42.555 45.5943 42.8905 45.4881 43.1977 45.5C46.2897 45.5 49.3824 45.5 52.4751 45.5C52.7148 45.4993 52.9746 45.5371 53.152 45.7145C53.4696 45.9854 53.4926 46.522 53.1995 46.8196C53.0228 47.0274 52.7393 47.0846 52.4788 47.0824C49.6243 47.0816 46.7699 47.0809 43.9154 47.0824C43.9036 48.2342 43.6623 49.3869 43.1673 50.4289C42.4964 51.8665 41.3801 53.0919 40.013 53.8971C38.8404 54.5992 37.4807 54.9637 36.1173 55H35.8226C34.4807 54.951 33.1448 54.5911 31.99 53.8986C30.6221 53.0941 29.5044 51.8687 28.8334 50.4304C28.3377 49.3883 28.0957 48.235 28.0853 47.0824C24.6638 47.0772 21.2423 47.089 17.8209 47.0772C17.3874 47.0928 17.0171 46.7261 17 46.2986V46.2726Z" fill="white"></path><path opacity="0.4" d="M18.4859 48.8458C19.4522 48.4376 20.659 48.7738 21.272 49.6251C21.9415 50.489 21.8836 51.8108 21.1444 52.6146C20.4052 53.4778 19.0247 53.6626 18.0836 53.025C17.4327 52.6131 17.0356 51.8672 17 51.1035V51.0182C17.0141 50.083 17.6116 49.1887 18.4859 48.8458Z" fill="white"></path><path opacity="0.4" d="M45.7569 48.7337C46.3744 48.592 47.0476 48.7033 47.5775 49.0521C48.2692 49.4952 48.7012 50.3138 48.6566 51.1369C48.6351 52.2784 47.6725 53.3034 46.534 53.3947C45.3776 53.5416 44.2146 52.7 43.9808 51.5607C43.6728 50.3369 44.5234 48.9883 45.7569 48.7337Z" fill="white"></path><path opacity="0.4" d="M24.4254 50.6337C25.3064 50.043 26.5755 50.1617 27.3333 50.9032C28.1549 51.6476 28.3159 52.988 27.6977 53.9083C27.2895 54.5592 26.5488 54.9592 25.7873 55H25.6077C24.6488 54.9518 23.7552 54.2935 23.4613 53.3746C23.1117 52.3794 23.531 51.1911 24.4254 50.6337Z" fill="white"></path><path opacity="0.4" d="M51.064 50.8453C51.8321 50.1461 53.0716 50.0608 53.9281 50.6486C54.5782 51.0664 54.9738 51.8161 54.9998 52.5835V52.7104C54.9575 53.3509 54.6784 53.981 54.1878 54.4033C53.7856 54.764 53.2571 54.9563 52.7235 55H52.5855C51.726 54.9756 50.8925 54.4716 50.5133 53.6938C50.0227 52.7631 50.2602 51.5244 51.064 50.8453Z" fill="white"></path></g><defs><clipPath id="clip0_258_4432"><rect width="38" height="38" fill="white" transform="translate(17 17)"></rect></clipPath></defs></svg>